<svg xmlns="http://www.w3.org/2000/svg" width="200" height="200" viewBox="0 0 200 200">
  <rect width="200" height="200" fill="#F5F5F5" rx="12"/>
  <g transform="translate(50, 45)" opacity="0.3">
    <path d="M50 0C22.4 0 0 22.4 0 50s22.4 50 50 50 50-22.4 50-50S77.6 0 50 0zm0 15c8.3 0 15 6.7 15 15s-6.7 15-15 15-15-6.7-15-15 6.7-15 15-15zm0 71c-12.5 0-23.6-6.4-30-16.1.1-9.9 20-15.4 30-15.4s29.9 5.4 30 15.4C73.6 79.6 62.5 86 50 86z" fill="#9CA3AF"/>
  </g>
  <text x="100" y="155" text-anchor="middle" font-family="system-ui,sans-serif" font-size="11" fill="#9CA3AF">No Image</text>
</svg>
